<svg width="1024" height="1024" viewBox="0 0 1024 1024" fill="none" xmlns="http://www.w3.org/2000/svg">
<g filter="url(#filter0_d_159_34)">
<rect x="100" y="100" width="824" height="824" rx="184" fill="white"/>
<rect x="100" y="100" width="824" height="824" rx="184" fill="url(#paint0_linear_159_34)" fill-opacity="0.41"/>
</g>
<g transform="translate(162, 194) scale(1.273)" fill="#007DEB">
<!-- Body/Carapace -->
<path d="M275 220C332 220 390 255 402 310C414 365 392 420 358 440C324 460 290 468 275 468C260 468 226 460 192 440C158 420 136 365 148 310C160 255 218 220 275 220Z"/>
<!-- Crown Spines -->
<polygon points="275,185 268,220 282,220"/>
<polygon points="240,195 234,222 248,218"/>
<polygon points="310,195 302,218 316,222"/>
<polygon points="208,210 206,236 218,230"/>
<polygon points="342,210 332,230 344,236"/>
<!-- Left Claw Arm -->
<path d="M165 275C148 258 128 238 110 215L95 200L88 212L108 225C125 242 148 265 170 288Z"/>
<!-- Left Upper Pincer -->
<path d="M95 200C82 182 68 162 52 142C44 148 50 164 62 178L95 200Z"/>
<!-- Left Lower Pincer -->
<path d="M88 212C72 218 58 222 42 218C38 208 52 200 68 205L88 212Z"/>
<!-- Right Claw Arm -->
<path d="M385 275C402 258 422 238 440 215L455 200L462 212L442 225C425 242 402 265 380 288Z"/>
<!-- Right Upper Pincer -->
<path d="M455 200C468 182 482 162 498 142C506 148 500 164 488 178L455 200Z"/>
<!-- Right Lower Pincer -->
<path d="M462 212C478 218 492 222 508 218C512 208 498 200 482 205L462 212Z"/>
<!-- Left Leg 1 -->
<path d="M156 318L58 278L26 265L22 276L56 286L152 330Z"/>
<!-- Left Leg 2 -->
<path d="M150 356L48 362L12 368L12 380L50 375L154 368Z"/>
<!-- Left Leg 3 -->
<path d="M164 392L90 448L68 478L80 484L98 456L172 404Z"/>
<!-- Right Leg 1 -->
<path d="M394 318L492 278L524 265L528 276L494 286L398 330Z"/>
<!-- Right Leg 2 -->
<path d="M400 356L502 362L538 368L538 380L500 375L396 368Z"/>
<!-- Right Leg 3 -->
<path d="M386 392L460 448L482 478L470 484L452 456L378 404Z"/>
<!-- Left Eye -->
<circle cx="240" cy="298" r="24" fill="white"/>
<circle cx="244" cy="296" r="13"/>
<!-- Right Eye -->
<circle cx="310" cy="298" r="24" fill="white"/>
<circle cx="306" cy="296" r="13"/>
</g>
<defs>
<filter id="filter0_d_159_34" x="78" y="89" width="868" height="868" filterUnits="userSpaceOnUse" color-interpolation-filters="sRGB">
<feFlood flood-opacity="0" result="BackgroundImageFix"/>
<feColorMatrix in="SourceAlpha" type="matrix" values="0 0 0 0 0 0 0 0 0 0 0 0 0 0 0 0 0 0 127 0" result="hardAlpha"/>
<feOffset dy="11"/>
<feGaussianBlur stdDeviation="11"/>
<feColorMatrix type="matrix" values="0 0 0 0 0 0 0 0 0 0 0 0 0 0 0 0 0 0 0.28 0"/>
<feBlend mode="normal" in2="BackgroundImageFix" result="effect1_dropShadow_159_34"/>
<feBlend mode="normal" in="SourceGraphic" in2="effect1_dropShadow_159_34" result="shape"/>
</filter>
<linearGradient id="paint0_linear_159_34" x1="512" y1="100" x2="512" y2="924" gradientUnits="userSpaceOnUse">
<stop stop-opacity="0"/>
<stop offset="1" stop-opacity="0.1"/>
</linearGradient>
</defs>
</svg>