<svg width="22" height="22" viewBox="0 0 22 22" fill="none" xmlns="http://www.w3.org/2000/svg">
<g fill="black">
<ellipse cx="11" cy="12" rx="5.5" ry="4.2"/>
<circle cx="11" cy="7.2" r="1.3"/>
<circle cx="8.5" cy="7.8" r="1"/>
<circle cx="13.5" cy="7.8" r="1"/>
<path d="M5.5 10.5L3 8L1.8 6.5L1 7.2L2.5 8.8L1.5 9.5L2.5 9.5L5.5 11.5Z"/>
<path d="M16.5 10.5L19 8L20.2 6.5L21 7.2L19.5 8.8L20.5 9.5L19.5 9.5L16.5 11.5Z"/>
<path d="M6 12L1.5 10.8L1 11.5L5.8 12.8Z"/>
<path d="M6 13.8L1 14.2L0.8 15L5.8 14.5Z"/>
<path d="M6.5 15.2L3.5 18.2L4.2 18.8L7 16Z"/>
<path d="M16 12L20.5 10.8L21 11.5L16.2 12.8Z"/>
<path d="M16 13.8L21 14.2L21.2 15L16.2 14.5Z"/>
<path d="M15.5 15.2L18.5 18.2L17.8 18.8L15 16Z"/>
</g>
</svg>